# This file uses centimeters as units for non-parametric coordinates.

mtllib Missile1_01.mtl
g default
v -0.002950 0.192374 -0.332085
v 0.000000 0.192960 -0.332085
v 0.002950 0.192374 -0.332085
v 0.005450 0.190702 -0.332085
v 0.005169 0.192785 -0.335246
v 0.003868 0.193583 -0.338365
v 0.001919 0.193037 -0.340773
v 0.000000 0.191441 -0.341766
v -0.001919 0.193037 -0.340773
v -0.003868 0.193583 -0.338365
v -0.005169 0.192785 -0.335246
v -0.005450 0.190702 -0.332085
v -0.192374 -0.002950 -0.332085
v -0.192960 -0.000000 -0.332085
v -0.192374 0.002950 -0.332085
v -0.190702 0.005450 -0.332085
v -0.192785 0.005169 -0.335246
v -0.193583 0.003868 -0.338365
v -0.193037 0.001919 -0.340773
v -0.191441 -0.000000 -0.341766
v -0.193037 -0.001919 -0.340773
v -0.193583 -0.003868 -0.338365
v -0.192785 -0.005169 -0.335246
v -0.190702 -0.005450 -0.332085
v 0.002950 -0.192374 -0.332085
v 0.000000 -0.192960 -0.332085
v -0.002950 -0.192374 -0.332085
v -0.005450 -0.190702 -0.332085
v -0.005169 -0.192785 -0.335246
v -0.003868 -0.193583 -0.338365
v -0.001919 -0.193037 -0.340773
v 0.000000 -0.191441 -0.341766
v 0.001919 -0.193037 -0.340773
v 0.003868 -0.193583 -0.338365
v 0.005169 -0.192785 -0.335246
v 0.005450 -0.190702 -0.332085
v 0.192374 0.002950 -0.332085
v 0.192960 -0.000000 -0.332085
v 0.192374 -0.002950 -0.332085
v 0.190702 -0.005450 -0.332085
v 0.192785 -0.005169 -0.335246
v 0.193583 -0.003868 -0.338365
v 0.193037 -0.001919 -0.340773
v 0.191441 -0.000000 -0.341766
v 0.193037 0.001919 -0.340773
v 0.193583 0.003868 -0.338365
v 0.192785 0.005169 -0.335246
v 0.190702 0.005450 -0.332085
v 0.017918 -0.009702 0.323204
v 0.017915 0.000000 0.325135
v 0.017918 0.009702 0.323204
v 0.017925 0.017925 0.317704
v 0.009702 0.017918 0.323204
v 0.000000 0.017915 0.325135
v -0.009702 0.017918 0.323204
v -0.017925 0.017925 0.317704
v -0.017918 0.009702 0.323204
v -0.017915 0.000000 0.325135
v -0.017918 -0.009702 0.323204
v -0.017925 -0.017925 0.317704
v -0.009702 -0.017918 0.323204
v -0.000000 -0.017915 0.325135
v 0.009702 -0.017918 0.323204
v 0.017925 -0.017925 0.317704
v -0.002980 0.194140 -0.334886
v 0.000000 0.194530 -0.334405
v 0.002980 0.194140 -0.334886
v 0.002164 0.194751 -0.337984
v 0.000000 0.194327 -0.340104
v -0.002164 0.194751 -0.337984
v 0.000000 0.195181 -0.336973
v -0.194140 -0.002980 -0.334886
v -0.194530 -0.000000 -0.334405
v -0.194140 0.002980 -0.334886
v -0.194751 0.002164 -0.337984
v -0.194327 -0.000000 -0.340104
v -0.194751 -0.002164 -0.337984
v -0.195181 -0.000000 -0.336973
v 0.002980 -0.194140 -0.334886
v 0.000000 -0.194530 -0.334405
v -0.002980 -0.194140 -0.334886
v -0.002164 -0.194751 -0.337984
v 0.000000 -0.194327 -0.340104
v 0.002164 -0.194751 -0.337984
v 0.000000 -0.195181 -0.336973
v 0.194140 0.002980 -0.334886
v 0.194530 -0.000000 -0.334405
v 0.194140 -0.002980 -0.334886
v 0.194751 -0.002164 -0.337984
v 0.194327 -0.000000 -0.340104
v 0.194751 0.002164 -0.337984
v 0.195181 -0.000000 -0.336973
v 0.009698 -0.009698 0.328700
v 0.009697 0.000000 0.330630
v 0.009698 0.009698 0.328700
v 0.000000 0.009697 0.330630
v -0.009698 0.009698 0.328700
v -0.009697 0.000000 0.330630
v -0.009698 -0.009698 0.328700
v -0.000000 -0.009697 0.330630
v 0.000000 0.000000 0.332560
vt 0.668094 0.747164
vt 0.672040 0.746124
vt 0.672653 0.749921
vt 0.669382 0.749921
vt 0.667609 0.744993
vt 0.671582 0.743336
vt 0.675609 0.746163
vt 0.675609 0.749921
vt 0.672040 0.753717
vt 0.668094 0.752677
vt 0.665394 0.749921
vt 0.664541 0.747476
vt 0.667609 0.503322
vt 0.671582 0.504338
vt 0.675609 0.742978
vt 0.914228 0.746323
vt 0.914944 0.749921
vt 0.675609 0.753678
vt 0.671582 0.756505
vt 0.667609 0.754849
vt 0.664541 0.752365
vt 0.664541 0.504017
vt 0.672040 0.502613
vt 0.668094 0.501834
vt 0.675609 0.506991
vt 0.912188 0.743274
vt 0.916982 0.749921
vt 0.916266 0.746325
vt 0.914228 0.753518
vt 0.675609 0.756864
vt 0.671582 0.995503
vt 0.667609 0.996520
vt 0.664541 0.995824
vt 0.675609 0.504862
vt 0.916266 0.753517
vt 0.912188 0.756567
vt 0.675609 0.992851
vt 0.668094 0.998008
vt 0.672040 0.997228
vt 0.675609 0.994979
vt 0.506964 0.247323
vt 0.510910 0.246283
vt 0.511523 0.250079
vt 0.508252 0.250079
vt 0.506479 0.245151
vt 0.510452 0.243495
vt 0.514479 0.246322
vt 0.514479 0.250079
vt 0.510910 0.253876
vt 0.506964 0.252836
vt 0.504264 0.250079
vt 0.503411 0.247635
vt 0.506479 0.003480
vt 0.510452 0.004497
vt 0.514479 0.243136
vt 0.753097 0.246481
vt 0.753814 0.250079
vt 0.514479 0.253837
vt 0.510452 0.256663
vt 0.506479 0.255007
vt 0.503411 0.252524
vt 0.503411 0.004176
vt 0.510910 0.002772
vt 0.506964 0.001992
vt 0.514479 0.007149
vt 0.751058 0.243432
vt 0.755851 0.250079
vt 0.755135 0.246483
vt 0.753097 0.253677
vt 0.514479 0.257022
vt 0.510452 0.495661
vt 0.506479 0.496678
vt 0.503411 0.495983
vt 0.514479 0.005021
vt 0.755135 0.253675
vt 0.751058 0.256726
vt 0.514479 0.493009
vt 0.506964 0.498166
vt 0.510910 0.497387
vt 0.514479 0.495138
vt 0.249377 0.006209
vt 0.251822 0.004176
vt 0.495280 0.247635
vt 0.493247 0.250079
vt 0.246933 0.004176
vt 0.249377 0.002532
vt 0.495280 0.252524
vt 0.496924 0.250079
vt 0.249377 0.493949
vt 0.005507 0.250079
vt 0.003474 0.247635
vt 0.244449 0.003480
vt 0.246620 0.001992
vt 0.252134 0.001992
vt 0.254305 0.003480
vt 0.251822 0.495982
vt 0.003474 0.252524
vt 0.246933 0.495982
vt 0.001830 0.250079
vt 0.249377 0.497626
vt 0.254305 0.496678
vt 0.252134 0.498166
vt 0.246620 0.498166
vt 0.244449 0.496678
vt 0.655559 0.742994
vt 0.658608 0.742991
vt 0.658605 0.746040
vt 0.655557 0.746042
vt 0.655719 0.504580
vt 0.658904 0.506708
vt 0.651961 0.746042
vt 0.651961 0.742995
vt 0.651961 0.503832
vt 0.648365 0.746042
vt 0.648364 0.742994
vt 0.655557 0.749638
vt 0.651961 0.749638
vt 0.655758 0.502330
vt 0.651961 0.501834
vt 0.648204 0.504580
vt 0.645317 0.746040
vt 0.645315 0.742991
vt 0.648366 0.749638
vt 0.655557 0.753234
vt 0.651961 0.753234
vt 0.648165 0.502330
vt 0.645018 0.506708
vt 0.648365 0.753234
vt 0.655559 0.756282
vt 0.651961 0.756281
vt 0.648364 0.756282
vt 0.658605 0.753236
vt 0.658608 0.756285
vt 0.655719 0.994696
vt 0.651961 0.995444
vt 0.648204 0.994696
vt 0.645315 0.756285
vt 0.645317 0.753236
vt 0.658904 0.992568
vt 0.651961 0.997442
vt 0.655758 0.996946
vt 0.648165 0.996946
vt 0.645018 0.992568
vt 0.636681 0.508387
vt 0.632735 0.509427
vt 0.632122 0.505630
vt 0.635393 0.505630
vt 0.632735 0.501834
vt 0.636681 0.502874
vt 0.639381 0.505630
vt 0.621926 0.502874
vt 0.625872 0.501834
vt 0.626485 0.505630
vt 0.623214 0.505630
vt 0.625872 0.509427
vt 0.621926 0.508387
vt 0.619226 0.505630
vn 0.678247 0.712550 0.179592
vn 0.165390 0.953351 0.252524
vn 0.153190 0.950915 0.268873
vn 0.692212 0.692212 0.204170
vn -0.000000 0.966247 0.257618
vn -0.000000 0.961772 0.273852
vn -0.165389 0.953351 0.252524
vn -0.153189 0.950916 0.268873
vn -0.678247 0.712550 0.179593
vn -0.692212 0.692212 0.204170
vn 0.000000 0.004859 -0.999988
vn 0.260454 0.264210 -0.928632
vn 0.264210 0.260454 -0.928632
vn 0.004858 -0.000000 -0.999988
vn 0.568427 0.573018 -0.590373
vn 0.640370 0.643524 -0.419289
vn 0.643529 0.640364 -0.419289
vn 0.573021 0.568424 -0.590373
vn 0.703964 0.706513 0.072625
vn 0.706517 0.703960 0.072625
vn 0.712550 0.678247 0.179593
vn -0.703963 0.706514 0.072620
vn -0.706516 0.703961 0.072620
vn -0.712550 0.678247 0.179593
vn -0.640369 0.643523 -0.419293
vn -0.643528 0.640363 -0.419293
vn -0.568426 0.573018 -0.590375
vn -0.573021 0.568423 -0.590375
vn -0.260455 0.264221 -0.928629
vn -0.004858 0.000000 -0.999988
vn -0.264211 0.260465 -0.928629
vn -0.953351 0.165389 0.252524
vn -0.950915 0.153190 0.268873
vn -0.966247 0.000000 0.257618
vn -0.961772 0.000000 0.273851
vn -0.953351 -0.165389 0.252524
vn -0.950915 -0.153189 0.268873
vn -0.712550 -0.678247 0.179593
vn -0.692212 -0.692212 0.204170
vn -0.706515 -0.703962 0.072624
vn -0.703962 -0.706515 0.072624
vn -0.678247 -0.712550 0.179593
vn -0.643528 -0.640367 -0.419289
vn -0.640368 -0.643525 -0.419289
vn -0.573021 -0.568424 -0.590373
vn -0.568427 -0.573018 -0.590373
vn -0.264210 -0.260463 -0.928629
vn 0.000000 -0.004859 -0.999988
vn -0.260453 -0.264220 -0.928629
vn -0.165390 -0.953351 0.252524
vn -0.153190 -0.950915 0.268873
vn 0.000000 -0.966247 0.257618
vn -0.000000 -0.961772 0.273852
vn 0.165390 -0.953351 0.252525
vn 0.153190 -0.950915 0.268874
vn 0.678247 -0.712550 0.179593
vn 0.692212 -0.692212 0.204170
vn 0.703961 -0.706516 0.072627
vn 0.706514 -0.703963 0.072627
vn 0.712550 -0.678247 0.179593
vn 0.640368 -0.643526 -0.419289
vn 0.643528 -0.640366 -0.419289
vn 0.568426 -0.573018 -0.590375
vn 0.573021 -0.568423 -0.590375
vn 0.260454 -0.264220 -0.928629
vn 0.264210 -0.260464 -0.928629
vn 0.953351 -0.165390 0.252524
vn 0.950915 -0.153191 0.268873
vn 0.966247 -0.000000 0.257618
vn 0.961772 -0.000000 0.273852
vn 0.953351 0.165390 0.252524
vn 0.950915 0.153191 0.268873
vn -0.380133 0.870097 0.313735
vn -0.000000 0.916738 0.399489
vn 0.380137 0.870097 0.313733
vn 0.320228 0.932954 -0.164472
vn -0.000001 0.899573 -0.436771
vn 0.000000 0.499128 -0.866529
vn -0.320225 0.932955 -0.164472
vn -0.000000 0.999365 0.035636
vn -0.870095 -0.380137 0.313736
vn -0.916738 -0.000000 0.399489
vn -0.870096 0.380138 0.313734
vn -0.932954 0.320227 -0.164473
vn -0.899573 -0.000000 -0.436770
vn -0.499113 -0.000000 -0.866537
vn -0.932954 -0.320227 -0.164472
vn -0.999365 -0.000000 0.035635
vn 0.380138 -0.870094 0.313737
vn 0.000000 -0.916737 0.399492
vn -0.380141 -0.870093 0.313738
vn -0.320231 -0.932954 -0.164469
vn -0.000002 -0.899572 -0.436773
vn 0.000000 -0.499128 -0.866529
vn 0.320229 -0.932954 -0.164469
vn 0.000001 -0.999365 0.035638
vn 0.870092 0.380144 0.313737
vn 0.916736 0.000000 0.399493
vn 0.870091 -0.380143 0.313740
vn 0.932954 -0.320229 -0.164468
vn 0.899574 0.000000 -0.436768
vn 0.499115 -0.000000 -0.866536
vn 0.932954 0.320229 -0.164468
vn 0.999365 0.000000 0.035639
vn 0.351921 -0.351921 0.867354
vn 0.374047 -0.000001 0.927410
vn 0.351921 0.351920 0.867355
vn 0.000000 0.374047 0.927410
vn -0.351921 0.351922 0.867354
vn -0.374047 -0.000000 0.927410
vn -0.351921 -0.351923 0.867354
vn -0.000000 -0.374048 0.927409
vn -0.000000 -0.000000 1.000000
s 1
g pPyramid1
usemtl initialShadingGroup
f 4/139/1 3/134/2 53/129/3 52/133/4
f 3/134/2 2/135/5 54/130/6 53/129/3
f 2/135/5 1/136/7 55/131/8 54/130/6
f 1/136/7 12/143/9 56/137/10 55/131/8
s 2
f 8/81/11 7/82/12 45/83/13 44/84/14
s 1
f 7/62/15 6/53/16 46/45/17 45/52/18
f 6/53/16 5/54/19 47/46/20 46/45/17
f 5/54/19 4/65/1 48/55/21 47/46/20
f 12/37/9 11/31/22 17/19/23 16/30/24
f 11/31/22 10/32/25 18/20/26 17/19/23
f 10/32/25 9/33/27 19/21/28 18/20/26
s 2
f 9/85/29 8/81/11 20/90/30 19/91/31
s 1
f 16/30/24 15/18/32 57/29/33 56/36/10
f 15/18/32 14/8/34 58/17/35 57/29/33
f 14/8/34 13/7/36 59/16/37 58/17/35
f 13/7/36 24/15/38 60/26/39 59/16/37
f 24/15/38 23/6/40 29/14/41 28/25/42
f 23/6/40 22/5/43 30/13/44 29/14/41
f 22/5/43 21/12/45 31/22/46 30/13/44
s 2
f 21/97/47 20/90/30 32/89/48 31/98/49
s 1
f 28/127/42 27/120/50 61/115/51 60/122/39
f 27/120/50 26/113/52 62/112/53 61/115/51
f 26/113/52 25/109/54 63/105/55 62/112/53
f 25/109/54 36/110/56 64/106/57 63/105/55
f 36/77/56 35/71/58 41/59/59 40/70/60
f 35/71/58 34/72/61 42/60/62 41/59/59
f 34/72/61 33/73/63 43/61/64 42/60/62
s 2
f 33/96/65 32/89/48 44/84/14 43/87/66
s 1
f 40/70/60 39/58/67 49/69/68 64/76/57
f 39/58/67 38/48/69 50/57/70 49/69/68
f 38/48/69 37/47/71 51/56/72 50/57/70
f 37/47/71 48/55/21 52/66/4 51/56/72
s 2
f 8/81/11 44/84/14 32/89/48 20/90/30
s 1
f 12/37/9 16/30/24 56/36/10
f 24/15/38 28/25/42 60/26/39
f 36/77/56 40/70/60 64/76/57
f 48/55/21 4/65/1 52/66/4
f 11/31/22 12/37/9 1/40/7 65/39/73
f 65/142/73 1/136/7 2/135/5 66/140/74
f 66/140/74 2/135/5 3/134/2 67/141/75
f 3/74/2 4/65/1 5/54/19 67/63/75
f 67/63/75 5/54/19 6/53/16 68/64/76
f 68/94/76 6/95/16 7/82/15 69/86/77
s 2
f 7/82/12 8/81/11 9/85/29 69/86/78
s 1
f 69/86/77 9/85/27 10/92/25 70/93/79
f 70/38/79 10/32/25 11/31/22 65/39/73
f 70/144/79 65/145/73 66/146/74 71/147/80
f 66/146/74 67/148/75 68/149/76 71/147/80
f 68/149/76 69/150/77 70/144/79 71/147/80
f 23/6/40 24/15/38 13/7/36 72/2/81
f 72/2/81 13/7/36 14/8/34 73/3/82
f 73/3/82 14/8/34 15/18/32 74/9/83
f 15/18/32 16/30/24 17/19/23 74/9/83
f 74/9/83 17/19/23 18/20/26 75/10/84
f 75/10/84 18/20/26 19/21/28 76/11/85
s 2
f 19/91/31 20/90/30 21/97/47 76/99/86
s 1
f 76/11/85 21/12/45 22/5/43 77/1/87
f 77/1/87 22/5/43 23/6/40 72/2/81
f 77/1/87 72/2/81 73/3/82 78/4/88
f 73/3/82 74/9/83 75/10/84 78/4/88
f 75/10/84 76/11/85 77/1/87 78/4/88
f 35/71/58 36/77/56 25/80/54 79/79/89
f 79/118/89 25/109/54 26/113/52 80/119/90
f 80/119/90 26/113/52 27/120/50 81/126/91
f 27/34/50 28/25/42 29/14/41 81/23/91
f 81/23/91 29/14/41 30/13/44 82/24/92
f 82/103/92 30/104/44 31/98/46 83/100/93
s 2
f 31/98/49 32/89/48 33/96/65 83/100/94
s 1
f 83/100/93 33/96/63 34/101/61 84/102/95
f 84/78/95 34/72/61 35/71/58 79/79/89
f 84/151/95 79/152/89 80/153/90 85/154/96
f 80/153/90 81/155/91 82/156/92 85/154/96
f 82/156/92 83/157/93 84/151/95 85/154/96
f 47/46/20 48/55/21 37/47/71 86/42/97
f 86/42/97 37/47/71 38/48/69 87/43/98
f 87/43/98 38/48/69 39/58/67 88/49/99
f 39/58/67 40/70/60 41/59/59 88/49/99
f 88/49/99 41/59/59 42/60/62 89/50/100
f 89/50/100 42/60/62 43/61/64 90/51/101
s 2
f 43/87/66 44/84/14 45/83/13 90/88/102
s 1
f 90/51/101 45/52/18 46/45/17 91/41/103
f 91/41/103 46/45/17 47/46/20 86/42/97
f 91/41/103 86/42/97 87/43/98 92/44/104
f 87/43/98 88/49/99 89/50/100 92/44/104
f 89/50/100 90/51/101 91/41/103 92/44/104
f 63/105/55 64/106/57 49/107/68 93/108/105
f 93/75/105 49/69/68 50/57/70 94/67/106
f 94/67/106 50/57/70 51/56/72 95/68/107
f 51/132/72 52/133/4 53/129/3 95/124/107
f 95/124/107 53/129/3 54/130/6 96/125/108
f 96/125/108 54/130/6 55/131/8 97/128/109
f 55/131/8 56/137/10 57/138/33 97/128/109
f 97/35/109 57/29/33 58/17/35 98/27/110
f 98/27/110 58/17/35 59/16/37 99/28/111
f 59/121/37 60/122/39 61/115/51 99/114/111
f 99/114/111 61/115/51 62/112/53 100/111/112
f 100/111/112 62/112/53 63/105/55 93/108/105
f 100/111/112 93/108/105 94/116/106 101/117/113
f 94/116/106 95/124/107 96/125/108 101/117/113
f 96/125/108 97/128/109 98/123/110 101/117/113
f 98/123/110 99/114/111 100/111/112 101/117/113
