# This file uses centimeters as units for non-parametric coordinates.

mtllib platform1_07_singleBlock.mtl
g default
v -2.867029 9.470289 5.450006
v -2.848730 9.451989 5.450006
v -2.823732 9.445292 5.450006
v -2.823732 9.451989 5.475001
v -2.823732 9.470289 5.493302
v -2.823732 9.495287 5.500000
v -2.848730 9.495287 5.493302
v -2.867029 9.495287 5.475001
v -2.873727 9.495287 5.450006
v 0.479054 9.451989 5.450006
v 0.497353 9.470289 5.450006
v 0.504051 9.495287 5.450006
v 0.497353 9.495287 5.475001
v 0.479054 9.495287 5.493302
v 0.454056 9.495287 5.500000
v 0.454056 9.470289 5.493302
v 0.454056 9.451989 5.475001
v 0.454056 9.445292 5.450006
v -2.848730 10.438594 5.450006
v -2.867029 10.420294 5.450006
v -2.873727 10.395296 5.450006
v -2.867029 10.395296 5.475001
v -2.848730 10.395296 5.493302
v -2.823732 10.395296 5.500000
v -2.823732 10.420294 5.493302
v -2.823732 10.438594 5.475001
v -2.823732 10.445292 5.450006
v 0.497353 10.420294 5.450006
v 0.479054 10.438594 5.450006
v 0.454056 10.445292 5.450006
v 0.454056 10.438594 5.475001
v 0.454056 10.420294 5.493302
v 0.454056 10.395296 5.500000
v 0.479054 10.395296 5.493302
v 0.497353 10.395296 5.475001
v 0.504051 10.395296 5.450006
v -2.848730 10.395296 -5.493302
v -2.867029 10.395296 -5.475001
v -2.873727 10.395296 -5.450006
v -2.867029 10.420294 -5.450006
v -2.848730 10.438594 -5.450006
v -2.823732 10.445292 -5.450006
v -2.823732 10.438594 -5.475001
v -2.823732 10.420294 -5.493302
v -2.823732 10.395296 -5.500000
v 0.497353 10.395296 -5.475001
v 0.479054 10.395296 -5.493302
v 0.454056 10.395296 -5.500000
v 0.454056 10.420294 -5.493302
v 0.454056 10.438594 -5.475001
v 0.454056 10.445292 -5.450006
v 0.479054 10.438594 -5.450006
v 0.497353 10.420294 -5.450006
v 0.504051 10.395296 -5.450006
v -2.848730 9.451989 -5.450006
v -2.867029 9.470289 -5.450006
v -2.873727 9.495287 -5.450006
v -2.867029 9.495287 -5.475001
v -2.848730 9.495287 -5.493302
v -2.823732 9.495287 -5.500000
v -2.823732 9.470289 -5.493302
v -2.823732 9.451989 -5.475001
v -2.823732 9.445292 -5.450006
v 0.497353 9.470289 -5.450006
v 0.479054 9.451989 -5.450006
v 0.454056 9.445292 -5.450006
v 0.454056 9.451989 -5.475001
v 0.454056 9.470289 -5.493302
v 0.454056 9.495287 -5.500000
v 0.479054 9.495287 -5.493302
v 0.497353 9.495287 -5.475001
v 0.504051 9.495287 -5.450006
v -2.863269 9.473684 5.471607
v -2.845334 9.455750 5.471607
v -2.845334 9.473684 5.489543
v 0.475658 9.455750 5.471607
v 0.493593 9.473684 5.471607
v 0.475658 9.473684 5.489543
v -2.845334 10.434834 5.471607
v -2.863269 10.416899 5.471607
v -2.845334 10.416899 5.489543
v 0.493593 10.416899 5.471607
v 0.475658 10.434834 5.471607
v 0.475658 10.416899 5.489543
v -2.845334 10.416899 -5.489543
v -2.863269 10.416899 -5.471607
v -2.845334 10.434834 -5.471607
v 0.493593 10.416899 -5.471607
v 0.475658 10.416899 -5.489543
v 0.475658 10.434834 -5.471607
v -2.845334 9.455750 -5.471607
v -2.863269 9.473684 -5.471607
v -2.845334 9.473684 -5.489543
v 0.493593 9.473684 -5.471607
v 0.475658 9.455750 -5.471607
v 0.475658 9.473684 -5.489543
v -2.848730 10.438594 -2.725003
v -2.867029 10.420294 -2.725003
v -2.873727 10.395296 -2.725003
v -2.873727 9.495287 -2.725003
v -2.867029 9.470289 -2.725003
v -2.848730 9.451989 -2.725003
v -2.823732 9.445292 -2.725003
v 0.454056 9.445292 -2.725003
v 0.479054 9.451989 -2.725003
v 0.497353 9.470289 -2.725003
v 0.504051 9.495287 -2.725003
v 0.504051 10.395296 -2.725003
v 0.497353 10.420294 -2.725003
v 0.479054 10.438594 -2.725003
v 0.454056 10.445292 -2.725003
v -2.823732 10.445292 -2.725003
v -2.848730 10.438594 0.000000
v -2.867029 10.420294 0.000000
v -2.873727 10.395296 0.000000
v -2.873727 9.495287 0.000000
v -2.867029 9.470289 0.000000
v -2.848730 9.451989 0.000000
v -2.823732 9.445292 0.000000
v 0.454056 9.445292 0.000000
v 0.479054 9.451989 0.000000
v 0.497353 9.470289 0.000000
v 0.504051 9.495287 0.000000
v 0.504051 10.395296 0.000000
v 0.497353 10.420294 0.000000
v 0.479054 10.438594 0.000000
v 0.454056 10.445292 0.000000
v -2.823732 10.445292 0.000000
v -2.848730 10.438594 2.725003
v -2.867029 10.420294 2.725003
v -2.873727 10.395296 2.725003
v -2.873727 9.495287 2.725003
v -2.867029 9.470289 2.725003
v -2.848730 9.451989 2.725003
v -2.823732 9.445292 2.725003
v 0.454056 9.445292 2.725003
v 0.479054 9.451989 2.725003
v 0.497353 9.470289 2.725003
v 0.504051 9.495287 2.725003
v 0.504051 10.395296 2.725003
v 0.497353 10.420294 2.725003
v 0.479054 10.438594 2.725003
v 0.454056 10.445292 2.725003
v -2.823732 10.445292 2.725003
vt 0.012706 0.016434
vt 0.016580 0.016434
vt 0.016580 0.210702
vt 0.012706 0.210702
vt 0.021871 0.016434
vt 0.021871 0.210702
vt 0.016580 0.404970
vt 0.012706 0.404970
vt 0.021871 0.014652
vt 0.017299 0.014894
vt 0.212379 0.016434
vt 0.212379 0.210702
vt 0.021871 0.404970
vt 0.016580 0.599238
vt 0.012706 0.599238
vt 0.212379 0.014652
vt 0.217670 0.016434
vt 0.217670 0.210702
vt 0.212379 0.404970
vt 0.021871 0.599238
vt 0.016580 0.793506
vt 0.012706 0.793506
vt 0.216952 0.014894
vt 0.221544 0.016434
vt 0.221544 0.210702
vt 0.217670 0.404970
vt 0.212379 0.599238
vt 0.021871 0.793506
vt 0.221544 0.404970
vt 0.217670 0.599238
vt 0.212379 0.793506
vt 0.021871 0.795288
vt 0.017299 0.795046
vt 0.221544 0.599238
vt 0.217670 0.793506
vt 0.212379 0.795288
vt 0.221544 0.793506
vt 0.216952 0.795046
vt 0.234181 0.793506
vt 0.228890 0.793506
vt 0.228890 0.599238
vt 0.234181 0.599238
vt 0.234181 0.795288
vt 0.229609 0.795046
vt 0.225016 0.793506
vt 0.225016 0.599238
vt 0.228890 0.404970
vt 0.234181 0.404970
vt 0.424689 0.599238
vt 0.424689 0.793506
vt 0.424689 0.795288
vt 0.225016 0.404970
vt 0.228890 0.210702
vt 0.234181 0.210702
vt 0.424689 0.404970
vt 0.429980 0.793506
vt 0.429980 0.599238
vt 0.429262 0.795046
vt 0.225016 0.210702
vt 0.228890 0.016434
vt 0.234181 0.016434
vt 0.424689 0.210702
vt 0.429980 0.404970
vt 0.433854 0.793506
vt 0.433854 0.599238
vt 0.225016 0.016434
vt 0.234181 0.014652
vt 0.229609 0.014894
vt 0.424689 0.016434
vt 0.429980 0.210702
vt 0.433854 0.404970
vt 0.424689 0.014652
vt 0.429980 0.016434
vt 0.433854 0.210702
vt 0.429262 0.014894
vt 0.433854 0.016434
vt 0.438876 0.791724
vt 0.437326 0.791724
vt 0.437326 0.597456
vt 0.438876 0.597456
vt 0.437326 0.403188
vt 0.438876 0.403188
vt 0.642100 0.597456
vt 0.642100 0.791724
vt 0.437326 0.208920
vt 0.438876 0.208920
vt 0.642100 0.403188
vt 0.643650 0.791724
vt 0.643650 0.597456
vt 0.437326 0.014652
vt 0.438876 0.014652
vt 0.642100 0.208920
vt 0.643650 0.403188
vt 0.642100 0.014652
vt 0.643650 0.208920
vt 0.643650 0.014652
vt 0.645912 0.014652
vt 0.647462 0.014652
vt 0.647462 0.208920
vt 0.645912 0.208920
vt 0.850686 0.014652
vt 0.850686 0.208920
vt 0.647462 0.403188
vt 0.645912 0.403188
vt 0.852235 0.014652
vt 0.852235 0.208920
vt 0.850686 0.403188
vt 0.647462 0.597456
vt 0.645912 0.597456
vt 0.852235 0.403188
vt 0.850686 0.597456
vt 0.647462 0.791724
vt 0.645912 0.791724
vt 0.852235 0.597456
vt 0.850686 0.791724
vt 0.852235 0.791724
vt 0.440011 0.801405
vt 0.440011 0.796565
vt 0.643235 0.796565
vt 0.643235 0.801405
vt 0.438461 0.801405
vt 0.438672 0.797222
vt 0.440011 0.793021
vt 0.643235 0.793021
vt 0.644785 0.801405
vt 0.644574 0.797222
vt 0.643235 0.975668
vt 0.440011 0.975668
vt 0.438461 0.975668
vt 0.437326 0.801405
vt 0.437560 0.797222
vt 0.438672 0.793749
vt 0.440011 0.791724
vt 0.643235 0.791724
vt 0.644574 0.793749
vt 0.644785 0.975668
vt 0.645686 0.797222
vt 0.645919 0.801405
vt 0.440011 0.980508
vt 0.643235 0.980508
vt 0.438672 0.979851
vt 0.437326 0.975668
vt 0.438461 0.793021
vt 0.644785 0.793021
vt 0.645919 0.975668
vt 0.644574 0.979851
vt 0.440011 0.984051
vt 0.643235 0.984051
vt 0.438672 0.983323
vt 0.437560 0.979851
vt 0.437326 0.796565
vt 0.645919 0.796565
vt 0.645686 0.979851
vt 0.644574 0.983323
vt 0.440011 0.985348
vt 0.643235 0.985348
vt 0.438461 0.984051
vt 0.644785 0.984051
vt 0.437326 0.980508
vt 0.645919 0.980508
vt 0.645912 0.801404
vt 0.647046 0.801404
vt 0.647046 0.975667
vt 0.645912 0.975667
vt 0.647257 0.797221
vt 0.646145 0.797221
vt 0.648596 0.801404
vt 0.648596 0.975667
vt 0.646145 0.979850
vt 0.647257 0.979850
vt 0.648596 0.796564
vt 0.647257 0.793749
vt 0.851820 0.801404
vt 0.851820 0.975667
vt 0.648596 0.980508
vt 0.647257 0.983323
vt 0.851820 0.796564
vt 0.648596 0.793021
vt 0.645912 0.796564
vt 0.647046 0.793021
vt 0.853370 0.801404
vt 0.853370 0.975667
vt 0.851820 0.980508
vt 0.648596 0.984051
vt 0.647046 0.984051
vt 0.645912 0.980508
vt 0.851820 0.793021
vt 0.853159 0.797221
vt 0.648596 0.791724
vt 0.854504 0.801404
vt 0.854504 0.975667
vt 0.853159 0.979850
vt 0.851820 0.984051
vt 0.648596 0.985348
vt 0.851820 0.791724
vt 0.853159 0.793749
vt 0.854271 0.797221
vt 0.854271 0.979850
vt 0.853159 0.983323
vt 0.851820 0.985348
vt 0.853370 0.793021
vt 0.853370 0.984051
vt 0.854504 0.796564
vt 0.854504 0.980508
vn -0.002018 -0.999995 0.002425
vn -0.258570 -0.965990 0.002326
vn -0.258802 -0.965930 0.000000
vn -0.002028 -0.999998 0.000000
vn -0.707122 -0.707091 0.000822
vn -0.865469 -0.500960 0.001810
vn -0.866031 -0.499990 0.000000
vn -0.707123 -0.707091 0.000000
vn -0.999971 -0.007225 0.002420
vn -0.999974 -0.007241 0.000000
vn -0.002016 -0.007229 0.999972
vn -0.001573 -0.500428 0.865777
vn 0.001573 -0.500428 0.865777
vn 0.002016 -0.007229 0.999972
vn -0.001013 -0.707122 0.707091
vn 0.001013 -0.707122 0.707091
vn -0.002000 -0.965974 0.258631
vn 0.002018 -0.999995 0.002425
vn 0.002000 -0.965974 0.258631
vn -0.866223 -0.005613 0.499626
vn -0.866223 0.005613 0.499626
vn -0.999971 0.007225 0.002420
vn -0.707128 -0.005570 0.707064
vn -0.707128 0.005570 0.707064
vn -0.258284 -0.005327 0.966054
vn -0.002016 0.007229 0.999972
vn -0.258284 0.005327 0.966054
vn 0.999971 -0.007225 0.002420
vn 0.865467 -0.500963 0.001810
vn 0.866030 -0.499993 0.000000
vn 0.999974 -0.007241 0.000000
vn 0.707119 -0.707095 0.000822
vn 0.707119 -0.707095 0.000000
vn 0.258572 -0.965989 0.002326
vn 0.002028 -0.999998 0.000000
vn 0.258804 -0.965930 0.000000
vn 0.258286 -0.005327 0.966054
vn 0.258286 0.005327 0.966054
vn 0.002016 0.007229 0.999972
vn 0.707124 -0.005570 0.707068
vn 0.866221 -0.005613 0.499629
vn 0.866221 0.005613 0.499629
vn 0.707124 0.005570 0.707068
vn 0.999971 0.007225 0.002420
vn -0.865469 0.500960 0.001810
vn -0.866031 0.499990 0.000000
vn -0.999974 0.007241 0.000000
vn -0.707122 0.707091 0.000822
vn -0.707123 0.707091 0.000000
vn -0.258570 0.965990 0.002326
vn -0.002018 0.999995 0.002425
vn -0.002028 0.999998 0.000000
vn -0.258802 0.965930 0.000000
vn -0.002000 0.965974 0.258631
vn 0.002000 0.965974 0.258631
vn 0.002018 0.999995 0.002425
vn -0.001013 0.707122 0.707091
vn -0.001573 0.500428 0.865777
vn 0.001573 0.500428 0.865777
vn 0.001013 0.707122 0.707091
vn 0.258572 0.965989 0.002326
vn 0.258804 0.965930 0.000000
vn 0.002028 0.999998 0.000000
vn 0.707119 0.707095 0.000822
vn 0.865467 0.500963 0.001810
vn 0.866030 0.499993 0.000000
vn 0.707119 0.707095 0.000000
vn 0.999974 0.007241 0.000000
vn -0.999971 0.007225 -0.002420
vn -0.866223 0.005613 -0.499626
vn -0.866223 -0.005613 -0.499626
vn -0.999971 -0.007225 -0.002420
vn -0.707128 0.005570 -0.707064
vn -0.707128 -0.005570 -0.707064
vn -0.258284 0.005327 -0.966054
vn -0.002016 0.007229 -0.999972
vn -0.002016 -0.007229 -0.999972
vn -0.258284 -0.005327 -0.966054
vn -0.001573 0.500428 -0.865777
vn 0.001573 0.500428 -0.865777
vn 0.002016 0.007229 -0.999972
vn -0.001013 0.707122 -0.707091
vn 0.001013 0.707122 -0.707091
vn -0.002000 0.965974 -0.258631
vn -0.002018 0.999995 -0.002425
vn 0.002018 0.999995 -0.002425
vn 0.002000 0.965974 -0.258631
vn 0.258286 0.005327 -0.966054
vn 0.258286 -0.005327 -0.966054
vn 0.002016 -0.007229 -0.999972
vn 0.707124 0.005570 -0.707068
vn 0.866221 0.005613 -0.499629
vn 0.866221 -0.005613 -0.499629
vn 0.707124 -0.005570 -0.707068
vn 0.999971 0.007225 -0.002420
vn 0.999971 -0.007225 -0.002420
vn -0.002018 -0.999995 -0.002425
vn -0.002000 -0.965974 -0.258631
vn 0.002000 -0.965974 -0.258631
vn 0.002018 -0.999995 -0.002425
vn -0.001013 -0.707122 -0.707091
vn -0.001573 -0.500428 -0.865777
vn 0.001573 -0.500428 -0.865777
vn 0.001013 -0.707122 -0.707091
vn -0.946102 -0.228997 0.229022
vn -0.694179 -0.436704 0.572194
vn -0.505623 -0.723376 0.470184
vn -0.229004 -0.946098 0.229031
vn -0.539107 -0.476219 0.694679
vn -0.228985 -0.228991 0.946113
vn 0.229005 -0.946098 0.229031
vn 0.505623 -0.723376 0.470183
vn 0.694175 -0.436707 0.572195
vn 0.946101 -0.228998 0.229023
vn 0.539107 -0.476217 0.694680
vn 0.228991 -0.228990 0.946111
vn -0.229005 0.946098 0.229031
vn -0.505624 0.723375 0.470184
vn -0.694179 0.436704 0.572194
vn -0.946102 0.228998 0.229021
vn -0.539108 0.476218 0.694680
vn -0.228989 0.228991 0.946112
vn 0.946101 0.228999 0.229024
vn 0.694175 0.436707 0.572195
vn 0.505623 0.723376 0.470183
vn 0.229005 0.946098 0.229031
vn 0.539107 0.476218 0.694680
vn 0.228987 0.228990 0.946112
vn -0.228985 0.228991 -0.946113
vn -0.539107 0.476219 -0.694679
vn -0.694179 0.436704 -0.572194
vn -0.865469 0.500960 -0.001810
vn -0.946102 0.228997 -0.229022
vn -0.707122 0.707091 -0.000822
vn -0.505623 0.723376 -0.470184
vn -0.258570 0.965990 -0.002326
vn -0.229004 0.946098 -0.229031
vn 0.865467 0.500963 -0.001810
vn 0.946101 0.228998 -0.229023
vn 0.694175 0.436707 -0.572195
vn 0.539107 0.476217 -0.694680
vn 0.228991 0.228990 -0.946111
vn 0.505623 0.723376 -0.470183
vn 0.258572 0.965989 -0.002326
vn 0.229005 0.946098 -0.229031
vn 0.707119 0.707095 -0.000822
vn -0.258570 -0.965990 -0.002326
vn -0.229005 -0.946098 -0.229031
vn -0.505624 -0.723375 -0.470184
vn -0.707122 -0.707091 -0.000822
vn -0.865469 -0.500960 -0.001810
vn -0.694179 -0.436704 -0.572194
vn -0.946102 -0.228998 -0.229021
vn -0.539108 -0.476218 -0.694680
vn -0.228989 -0.228991 -0.946112
vn 0.865467 -0.500963 -0.001810
vn 0.946101 -0.228999 -0.229024
vn 0.694175 -0.436707 -0.572195
vn 0.707119 -0.707095 -0.000822
vn 0.505623 -0.723376 -0.470183
vn 0.258572 -0.965989 -0.002326
vn 0.229005 -0.946098 -0.229031
vn 0.539107 -0.476218 -0.694680
vn 0.228987 -0.228990 -0.946112
vn -0.866031 0.499990 0.000000
vn -0.707123 0.707091 0.000000
vn -0.999974 0.007241 0.000000
vn -0.999974 -0.007241 0.000000
vn -0.866031 -0.499990 0.000000
vn -0.707123 -0.707091 0.000000
vn -0.002028 -0.999998 0.000000
vn -0.258802 -0.965930 0.000000
vn 0.002028 -0.999998 0.000000
vn 0.258804 -0.965930 0.000000
vn 0.866030 -0.499993 0.000000
vn 0.707119 -0.707095 0.000000
vn 0.999974 -0.007241 0.000000
vn 0.999974 0.007241 0.000000
vn 0.866030 0.499993 0.000000
vn 0.707119 0.707095 0.000000
vn 0.002028 0.999998 0.000000
vn 0.258804 0.965930 0.000000
vn -0.002028 0.999998 0.000000
vn -0.258802 0.965930 0.000000
vn -0.866031 0.499990 0.000000
vn -0.707123 0.707091 0.000000
vn -0.999974 0.007241 0.000000
vn -0.999974 -0.007241 0.000000
vn -0.866031 -0.499990 0.000000
vn -0.707123 -0.707091 0.000000
vn -0.002028 -0.999998 0.000000
vn -0.258802 -0.965930 0.000000
vn 0.002028 -0.999998 0.000000
vn 0.258804 -0.965930 0.000000
vn 0.866030 -0.499993 0.000000
vn 0.707119 -0.707095 0.000000
vn 0.999974 -0.007241 0.000000
vn 0.999974 0.007241 0.000000
vn 0.866030 0.499993 0.000000
vn 0.707119 0.707095 0.000000
vn 0.002028 0.999998 0.000000
vn 0.258804 0.965930 0.000000
vn -0.002028 0.999998 0.000000
vn -0.258802 0.965930 0.000000
s 1
g pCube2
usemtl initialShadingGroup
f 3/77/1 2/78/2 134/79/3 135/80/4
s 2
f 2/1/5 1/2/6 133/3/7 134/4/8
f 1/2/6 9/5/9 132/6/10 133/3/7
f 6/117/11 5/118/12 16/119/13 15/120/14
f 5/118/12 4/123/15 17/124/16 16/119/13
s 1
f 4/123/17 3/133/1 18/134/18 17/124/19
s 2
f 9/5/9 8/9/20 22/16/21 21/11/22
f 8/130/20 7/121/23 23/129/24 22/142/21
f 7/121/25 6/117/11 24/128/26 23/129/27
f 12/39/28 11/40/29 138/41/30 139/42/31
f 11/40/29 10/45/32 137/46/33 138/41/30
s 1
f 10/88/34 18/84/18 136/83/35 137/89/36
s 2
f 15/120/14 14/125/37 34/136/38 33/127/39
f 14/125/40 13/138/41 35/145/42 34/136/43
f 13/43/41 12/39/28 36/50/44 35/51/42
f 21/11/22 20/17/45 130/18/46 131/12/47
f 20/17/45 19/24/48 129/25/49 130/18/46
s 6
f 19/97/50 27/98/51 144/99/52 129/100/53
f 27/155/51 26/147/54 31/148/55 30/156/56
s 2
f 26/147/57 25/139/58 32/140/59 31/148/60
f 25/139/58 24/128/26 33/127/39 32/140/59
s 6
f 30/101/56 29/105/61 142/106/62 143/102/63
s 2
f 29/64/64 28/56/65 141/57/66 142/65/67
f 28/56/65 36/50/44 140/49/68 141/57/66
f 39/31/69 38/36/70 58/32/71 57/28/72
f 38/161/70 37/162/73 59/163/74 58/164/71
f 37/162/75 45/167/76 60/168/77 59/163/78
f 45/167/76 44/171/79 49/177/80 48/173/81
f 44/171/79 43/178/82 50/187/83 49/177/80
s 6
f 43/178/84 42/189/85 51/195/86 50/187/87
s 2
f 48/173/81 47/181/88 70/182/89 69/174/90
f 47/181/91 46/190/92 71/191/93 70/182/94
f 46/72/92 54/69/95 72/61/96 71/67/93
s 1
f 63/194/97 62/184/98 67/193/99 66/200/100
s 2
f 62/184/101 61/175/102 68/183/103 67/193/104
f 61/175/102 60/168/77 69/174/90 68/183/103
f 6/117/11 15/120/14 33/127/39 24/128/26
s 6
f 27/98/51 30/101/56 143/102/63 144/99/52
s 2
f 45/167/76 48/173/81 69/174/90 60/168/77
s 1
f 135/80/4 136/83/35 18/84/18 3/77/1
s 2
f 12/39/28 139/42/31 140/49/68 36/50/44
f 132/6/10 9/5/9 21/11/22 131/12/47
f 8/9/20 9/5/9 1/2/6 73/10/105
f 73/131/106 1/151/6 2/143/5 74/132/107
s 1
f 2/143/2 3/133/1 4/123/17 74/132/108
s 2
f 74/132/107 4/123/15 5/118/12 75/122/109
f 5/118/12 6/117/11 7/121/25 75/122/110
f 75/122/109 7/121/23 8/130/20 73/131/106
f 73/131/106 74/132/107 75/122/109
s 1
f 17/124/19 18/134/18 10/144/34 76/135/111
s 2
f 76/135/112 10/144/32 11/152/29 77/137/113
f 11/40/29 12/39/28 13/43/41 77/44/114
f 77/137/113 13/138/41 14/125/40 78/126/115
f 14/125/37 15/120/14 16/119/13 78/126/116
f 78/126/115 16/119/13 17/124/16 76/135/112
f 76/135/112 77/137/113 78/126/115
s 6
f 26/147/54 27/155/51 19/157/50 79/149/117
s 2
f 79/149/118 19/157/48 20/159/45 80/150/119
f 20/17/45 21/11/22 22/16/21 80/23/120
f 80/150/119 22/142/21 23/129/24 81/141/121
f 23/129/27 24/128/26 25/139/58 81/141/122
f 81/141/121 25/139/58 26/147/57 79/149/118
f 79/149/118 80/150/119 81/141/121
f 35/51/42 36/50/44 28/56/65 82/58/123
f 82/153/124 28/160/65 29/158/64 83/154/125
s 6
f 29/158/61 30/156/56 31/148/55 83/154/126
s 2
f 83/154/125 31/148/60 32/140/59 84/146/127
f 32/140/59 33/127/39 34/136/38 84/146/128
f 84/146/127 34/136/43 35/145/42 82/153/124
f 82/153/124 83/154/125 84/146/127
f 44/171/79 45/167/76 37/162/75 85/165/129
f 85/165/130 37/162/73 38/161/70 86/166/131
f 38/36/70 39/31/69 40/35/132 86/38/133
f 86/166/131 40/179/132 41/180/134 87/172/135
s 6
f 41/180/136 42/189/85 43/178/84 87/172/137
s 2
f 87/172/135 43/178/82 44/171/79 85/165/130
f 85/165/130 86/166/131 87/172/135
f 53/73/138 54/69/95 46/72/92 88/75/139
f 88/197/140 46/190/92 47/181/91 89/188/141
f 47/181/88 48/173/81 49/177/80 89/188/142
f 89/188/141 49/177/80 50/187/83 90/196/143
s 6
f 50/187/87 51/195/86 52/201/144 90/196/145
s 2
f 90/196/143 52/201/146 53/203/138 88/197/140
f 88/197/140 89/188/141 90/196/143
s 1
f 62/184/98 63/194/97 55/185/147 91/176/148
s 2
f 91/176/149 55/185/150 56/186/151 92/169/152
f 56/21/151 57/28/72 58/32/71 92/33/153
f 92/169/152 58/164/71 59/163/74 93/170/154
f 59/163/78 60/168/77 61/175/102 93/170/155
f 93/170/154 61/175/102 62/184/101 91/176/149
f 91/176/149 92/169/152 93/170/154
f 71/67/93 72/61/96 64/60/156 94/68/157
f 94/198/158 64/204/156 65/202/159 95/199/160
s 1
f 65/202/161 66/200/100 67/193/99 95/199/162
s 2
f 95/199/160 67/193/104 68/183/103 96/192/163
f 68/183/103 69/174/90 70/182/89 96/192/164
f 96/192/163 70/182/94 71/191/93 94/198/158
f 94/198/158 95/199/160 96/192/163
f 98/30/165 97/34/166 41/37/134 40/35/132
f 99/27/167 98/30/165 40/35/132 39/31/69
f 57/28/72 100/20/168 99/27/167 39/31/69
f 101/14/169 100/20/168 57/28/72 56/21/151
f 102/15/170 101/14/169 56/21/151 55/22/150
s 1
f 103/86/171 102/85/172 55/90/147 63/91/97
f 63/91/97 66/94/100 104/92/173 103/86/171
f 105/95/174 104/92/173 66/94/100 65/96/161
s 2
f 106/53/175 105/59/176 65/66/159 64/60/156
f 107/54/177 106/53/175 64/60/156 72/61/96
f 108/62/178 107/54/177 72/61/96 54/69/95
f 109/70/179 108/62/178 54/69/95 53/73/138
f 110/74/180 109/70/179 53/73/138 52/76/146
s 6
f 111/111/181 110/114/182 52/116/144 51/115/86
f 112/108/183 111/111/181 51/115/86 42/112/85
f 97/109/184 112/108/183 42/112/85 41/113/136
s 2
f 114/26/185 113/29/186 97/34/166 98/30/165
f 115/19/187 114/26/185 98/30/165 99/27/167
f 100/20/168 116/13/188 115/19/187 99/27/167
f 117/7/189 116/13/188 100/20/168 101/14/169
f 118/8/190 117/7/189 101/14/169 102/15/170
s 1
f 119/82/191 118/81/192 102/85/172 103/86/171
f 103/86/171 104/92/173 120/87/193 119/82/191
f 121/93/194 120/87/193 104/92/173 105/95/174
s 2
f 122/47/195 121/52/196 105/59/176 106/53/175
f 123/48/197 122/47/195 106/53/175 107/54/177
f 124/55/198 123/48/197 107/54/177 108/62/178
f 125/63/199 124/55/198 108/62/178 109/70/179
f 126/71/200 125/63/199 109/70/179 110/74/180
s 6
f 127/107/201 126/110/202 110/114/182 111/111/181
f 128/103/203 127/107/201 111/111/181 112/108/183
f 113/104/204 128/103/203 112/108/183 97/109/184
s 2
f 130/18/46 129/25/49 113/29/186 114/26/185
f 131/12/47 130/18/46 114/26/185 115/19/187
f 116/13/188 132/6/10 131/12/47 115/19/187
f 133/3/7 132/6/10 116/13/188 117/7/189
f 134/4/8 133/3/7 117/7/189 118/8/190
s 1
f 135/80/4 134/79/3 118/81/192 119/82/191
f 119/82/191 120/87/193 136/83/35 135/80/4
f 137/89/36 136/83/35 120/87/193 121/93/194
s 2
f 138/41/30 137/46/33 121/52/196 122/47/195
f 139/42/31 138/41/30 122/47/195 123/48/197
f 140/49/68 139/42/31 123/48/197 124/55/198
f 141/57/66 140/49/68 124/55/198 125/63/199
f 142/65/67 141/57/66 125/63/199 126/71/200
s 6
f 143/102/63 142/106/62 126/110/202 127/107/201
f 144/99/52 143/102/63 127/107/201 128/103/203
f 129/100/53 144/99/52 128/103/203 113/104/204
