# This file uses centimeters as units for non-parametric coordinates.

mtllib ground1.mtl
g default
v -229.850600 -0.500000 97.602250
v 229.850600 -0.500000 97.602250
v -229.850600 0.500000 97.602250
v 229.850600 0.500000 97.602250
v -229.850600 0.500000 -97.602250
v 229.850600 0.500000 -97.602250
v -229.850600 -0.500000 -97.602250
v 229.850600 -0.500000 -97.602250
vt 0.017358 0.857467
vt 0.115995 0.857467
vt 0.115995 0.956104
vt 0.017358 0.956104
vt 0.118246 0.857467
vt 0.216884 0.857467
vt 0.216884 0.956104
vt 0.118246 0.956104
vt 0.009123 0.048545
vt 0.991699 0.048545
vt 0.991699 0.465779
vt 0.009123 0.465779
vt 0.245670 0.852671
vt 0.344307 0.852671
vt 0.344307 0.951308
vt 0.245670 0.951308
vt 0.037235 0.730810
vt 0.135872 0.730810
vt 0.135872 0.829447
vt 0.037235 0.829447
vt 0.345426 0.852669
vt 0.444063 0.852669
vt 0.444063 0.951306
vt 0.345426 0.951306
vn 0.000000 0.000000 1.000000
vn 0.000000 0.000000 1.000000
vn 0.000000 0.000000 1.000000
vn 0.000000 0.000000 1.000000
vn 0.000000 1.000000 0.000000
vn 0.000000 1.000000 0.000000
vn 0.000000 1.000000 0.000000
vn 0.000000 1.000000 0.000000
vn 0.000000 0.000000 -1.000000
vn 0.000000 0.000000 -1.000000
vn 0.000000 0.000000 -1.000000
vn 0.000000 0.000000 -1.000000
vn 0.000000 -1.000000 0.000000
vn 0.000000 -1.000000 0.000000
vn 0.000000 -1.000000 0.000000
vn 0.000000 -1.000000 0.000000
vn 1.000000 0.000000 0.000000
vn 1.000000 0.000000 0.000000
vn 1.000000 0.000000 0.000000
vn 1.000000 0.000000 0.000000
vn -1.000000 0.000000 0.000000
vn -1.000000 0.000000 0.000000
vn -1.000000 0.000000 0.000000
vn -1.000000 0.000000 0.000000
s 1
g pCube1
usemtl initialShadingGroup
f 1/17/1 2/18/2 3/20/3
f 3/20/3 2/18/2 4/19/4
s 2
f 3/9/5 4/10/6 5/12/7
f 5/12/7 4/10/6 6/11/8
s 3
f 5/21/9 6/22/10 7/24/11
f 7/24/11 6/22/10 8/23/12
s 4
f 7/13/13 8/14/14 1/16/15
f 1/16/15 8/14/14 2/15/16
s 5
f 2/1/17 8/2/18 4/4/19
f 4/4/19 8/2/18 6/3/20
s 6
f 7/5/21 1/6/22 5/8/23
f 5/8/23 1/6/22 3/7/24
