# This file uses centimeters as units for non-parametric coordinates.

mtllib star1.mtl
g default
v -0.500000 -0.500000 0.500000
v 0.500000 -0.500000 0.500000
v -0.500000 0.500000 0.500000
v 0.500000 0.500000 0.500000
v -0.500000 0.500000 -0.500000
v 0.500000 0.500000 -0.500000
v -0.500000 -0.500000 -0.500000
v 0.500000 -0.500000 -0.500000
v -0.100000 -0.100000 1.071125
v 0.100000 -0.100000 1.071125
v 0.100000 0.100000 1.071125
v -0.100000 0.100000 1.071125
v -0.100000 1.071125 0.100000
v 0.100000 1.071125 0.100000
v 0.100000 1.071125 -0.100000
v -0.100000 1.071125 -0.100000
v -0.100000 0.100000 -1.071125
v 0.100000 0.100000 -1.071125
v 0.100000 -0.100000 -1.071125
v -0.100000 -0.100000 -1.071125
v -0.100000 -1.071125 -0.100000
v 0.100000 -1.071125 -0.100000
v 0.100000 -1.071125 0.100000
v -0.100000 -1.071125 0.100000
v 1.071125 -0.100000 -0.100000
v 1.071125 -0.100000 0.100000
v 1.071125 0.100000 -0.100000
v 1.071125 0.100000 0.100000
v -1.071125 -0.100000 -0.100000
v -1.071125 -0.100000 0.100000
v -1.071125 0.100000 0.100000
v -1.071125 0.100000 -0.100000
vt 0.375000 0.000000
vt 0.625000 0.000000
vt 0.375000 0.250000
vt 0.625000 0.250000
vt 0.375000 0.500000
vt 0.625000 0.500000
vt 0.375000 0.750000
vt 0.625000 0.750000
vt 0.375000 1.000000
vt 0.625000 1.000000
vt 0.875000 0.000000
vt 0.875000 0.250000
vt 0.125000 0.000000
vt 0.125000 0.250000
vt 0.375000 0.000000
vt 0.625000 0.000000
vt 0.625000 0.250000
vt 0.375000 0.250000
vt 0.375000 0.250000
vt 0.625000 0.250000
vt 0.625000 0.500000
vt 0.375000 0.500000
vt 0.375000 0.500000
vt 0.625000 0.500000
vt 0.625000 0.750000
vt 0.375000 0.750000
vt 0.375000 0.750000
vt 0.625000 0.750000
vt 0.625000 1.000000
vt 0.375000 1.000000
vt 0.625000 0.000000
vt 0.875000 0.000000
vt 0.875000 0.250000
vt 0.625000 0.250000
vt 0.125000 0.000000
vt 0.375000 0.000000
vt 0.375000 0.250000
vt 0.125000 0.250000
vn -0.487061 -0.487061 0.724944
vn 0.487061 -0.487061 0.724944
vn 0.487061 0.487061 0.724944
vn -0.487061 0.487061 0.724944
vn 0.000000 0.618948 0.785432
vn 0.487061 0.724944 0.487061
vn 0.785432 0.618948 0.000000
vn 0.000000 1.000000 0.000000
vn 0.000000 0.000000 -1.000000
vn 0.000000 0.000000 -1.000000
vn 0.000000 0.000000 -1.000000
vn 0.000000 0.000000 -1.000000
vn 0.000000 -1.000000 0.000000
vn 0.000000 -1.000000 0.000000
vn 0.000000 -1.000000 0.000000
vn 0.000000 -1.000000 0.000000
vn 1.000000 0.000000 0.000000
vn 1.000000 0.000000 0.000000
vn 1.000000 0.000000 0.000000
vn 1.000000 0.000000 0.000000
vn -1.000000 0.000000 0.000000
vn -1.000000 0.000000 0.000000
vn -1.000000 0.000000 0.000000
vn -1.000000 0.000000 0.000000
vn 0.000000 -0.707107 0.707107
vn 0.000000 -0.707107 0.707107
vn 0.707107 0.000000 0.707107
vn 0.707107 0.000000 0.707107
vn 0.000000 0.819089 0.573667
vn 0.000000 0.819089 0.573667
vn -0.707107 0.000000 0.707107
vn -0.707107 0.000000 0.707107
vn 0.000000 0.573667 0.819089
vn 0.000000 0.573667 0.819089
vn 0.707107 0.707107 0.000000
vn 0.707107 0.707107 0.000000
vn 0.000000 0.707107 -0.707107
vn 0.000000 0.707107 -0.707107
vn 0.000000 0.573667 -0.819089
vn 0.000000 0.573667 -0.819089
vn -0.707107 0.707107 0.000000
vn -0.707107 0.707107 0.000000
vn -0.819089 0.573667 0.000000
vn -0.819089 0.573667 0.000000
vn 0.000000 0.819089 -0.573667
vn 0.000000 0.819089 -0.573667
vn 0.707107 0.000000 -0.707107
vn 0.707107 0.000000 -0.707107
vn 0.819089 0.000000 -0.573667
vn 0.819089 0.000000 -0.573667
vn 0.000000 -0.707107 -0.707107
vn 0.000000 -0.707107 -0.707107
vn 0.000000 -0.819089 -0.573667
vn 0.000000 -0.819089 -0.573667
vn -0.707107 0.000000 -0.707107
vn -0.707107 0.000000 -0.707107
vn -0.819089 0.000000 -0.573667
vn -0.819089 0.000000 -0.573667
vn 0.000000 -0.573667 -0.819089
vn 0.000000 -0.573667 -0.819089
vn 0.707107 -0.707107 0.000000
vn 0.707107 -0.707107 0.000000
vn 0.819089 -0.573667 0.000000
vn 0.819089 -0.573667 0.000000
vn 0.000000 -0.573667 0.819089
vn 0.000000 -0.573667 0.819089
vn -0.707107 -0.707107 0.000000
vn -0.707107 -0.707107 0.000000
vn -0.819089 -0.573667 0.000000
vn -0.819089 -0.573667 0.000000
vn 0.573667 -0.819089 0.000000
vn 0.573667 -0.819089 0.000000
vn 0.573667 0.000000 -0.819089
vn 0.573667 0.000000 -0.819089
vn 0.573667 0.819089 0.000000
vn 0.573667 0.819089 0.000000
vn 0.573667 0.000000 0.819089
vn 0.573667 0.000000 0.819089
vn -0.573667 -0.819089 0.000000
vn -0.573667 -0.819089 0.000000
vn -0.573667 0.000000 0.819089
vn -0.573667 0.000000 0.819089
vn -0.573667 0.819089 0.000000
vn -0.573667 0.819089 0.000000
vn -0.573667 0.000000 -0.819089
vn -0.573667 0.000000 -0.819089
s 1
g pCube1
usemtl initialShadingGroup
f 9/15/1 10/16/2 11/17/3 12/18/4
s 2
f 13/19/5 14/20/6 15/21/7 16/22/8
s off
f 17/23/9 18/24/10 19/25/11 20/26/12
f 21/27/13 22/28/14 23/29/15 24/30/16
f 26/31/17 25/32/18 27/33/19 28/34/20
f 29/35/21 30/36/22 31/37/23 32/38/24
s 1
f 1/1/25 2/2/26 10/16/2 9/15/1
f 2/2/27 4/4/28 11/17/3 10/16/2
f 4/4/29 3/3/30 12/18/4 11/17/3
f 3/3/31 1/1/32 9/15/1 12/18/4
s 2
f 3/3/33 4/4/34 14/20/6 13/19/5
f 4/4/35 6/6/36 15/21/7 14/20/6
s 3
f 6/6/37 5/5/38 16/22/39 15/21/40
s 4
f 5/5/41 3/3/42 13/19/43 16/22/44
s 3
f 5/5/38 6/6/37 18/24/45 17/23/46
s 5
f 6/6/47 8/8/48 19/25/49 18/24/50
s 6
f 8/8/51 7/7/52 20/26/53 19/25/54
s 7
f 7/7/55 5/5/56 17/23/57 20/26/58
s 6
f 7/7/52 8/8/51 22/28/59 21/27/60
s 8
f 8/8/61 2/10/62 23/29/63 22/28/64
s 1
f 2/10/26 1/9/25 24/30/65 23/29/66
s 9
f 1/9/67 7/7/68 21/27/69 24/30/70
s 8
f 2/2/62 8/11/61 25/32/71 26/31/72
s 5
f 8/11/48 6/12/47 27/33/73 25/32/74
s 2
f 6/12/36 4/4/35 28/34/75 27/33/76
s 1
f 4/4/28 2/2/27 26/31/77 28/34/78
s 9
f 7/13/68 1/1/67 30/36/79 29/35/80
s 1
f 1/1/32 3/3/31 31/37/81 30/36/82
s 4
f 3/3/42 5/14/41 32/38/83 31/37/84
s 7
f 5/14/56 7/13/55 29/35/85 32/38/86
